<?xml version="1.0" encoding="UTF-8"?><svg id="Layer_2" xmlns="http://www.w3.org/2000/svg" viewBox="0 0 458.8142 56.0648"><g id="Components"><g id="_7bea65c6-1916-4f0a-a64d-f1d58408e979_5"><polygon points="64.6154 .8052 64.6154 12.214 54.9329 12.214 36.9855 55.24 27.6289 55.24 9.6824 12.214 0 12.214 0 .8052 14.7633 .8052 32.2305 42.3744 32.384 42.3744 49.8521 .8052 64.6154 .8052" style="fill:#fff;"/><rect x="55.1052" y="11.8114" width="9.5102" height="43.4286" style="fill:#fff;"/><rect y="11.8114" width="9.5102" height="43.4286" style="fill:#fff;"/><path d="M127.3356,18.0616h-9.7976l.9971,2.3967,6.6912,15.9336h-.0571l3.6616,8.6095.6142,1.4568,3.7196,8.7818h10.584l-16.4129-37.1784Z" style="fill:#fff;"/><polygon points="124.6449 11.9649 114.8089 11.9649 96.6134 55.24 86.3552 55.24 95.3663 34.7246 110.1877 1.0551 110.3028 .8052 119.7175 .8052 123.3416 9.0121 124.6449 11.9649" style="fill:#fff;"/><path d="M185.5057,34.8388h14.0157v20.2674c3.5853-.7677,6.6917-2.0522,9.5102-3.8732v-24.926h-23.5259v8.5318ZM189.436,0c-18.1955,0-29.9301,10.9679-29.9301,28.0324,0,17.0458,11.7346,28.0324,29.9301,28.0324.5365,0,1.0547,0,1.5724-.0197v-8.7808c-.4026.0187-.8243.0187-1.2466.0187-12.2898,0-20.3245-7.5357-20.3245-19.2506,0-11.7346,8.0347-19.2694,20.3245-19.2694,7.7847,0,13.8627,2.128,18.7713,6.8063h.4985V4.8319c-5.1769-3.3742-11.3124-4.8319-19.5956-4.8319Z" style="fill:#fff;"/><path d="M273.5676.8052v40.6677h-.1535L248.2385.8052h-10.4305l6.5765,10.7376,26.805,43.6973h11.8882V.8052h-9.5102ZM234.7021,11.8114v43.4286h9.5102v-27.9173l-9.5102-15.5114Z" style="fill:#fff;"/><path d="M309.6682.8052v54.4349h9.836V.8052h-9.836Z" style="fill:#fff;"/><path d="M355.9117,24.3315v-14.7446l-9.836-3.8151v49.4682h9.836v-22.1267h24.5235v-8.7818h-24.5235ZM346.0758.8052v8.7818h40.2651V.8052h-40.2651Z" style="fill:#fff;"/><path d="M447.3483.8052l-11.1209,15.9916,5.388,7.7463L458.8142.8052h-11.4659Z" style="fill:#fff;"/><polygon points="436.1833 30.5247 436.1833 55.24 426.3473 55.24 426.3473 32.2127 403.5681 .8052 415.533 .8052 431.4282 23.6799 436.1833 30.5247" style="fill:#fff;"/><line x1="199.5154" y1="45.9021" x2="209.547" y2="41.8473" style="fill:#fff;"/></g></g></svg>